<svg width="2158" height="1409" viewBox="0 0 2158 1409" fill="none" xmlns="http://www.w3.org/2000/svg">
<mask id="mask0_607_4883" style="mask-type:alpha" maskUnits="userSpaceOnUse" x="0" y="0" width="2158" height="1409">
<rect width="2158" height="1409" transform="matrix(-1 0 0 1 2158 0)" fill="#D9D9D9"/>
</mask>
<g mask="url(#mask0_607_4883)">
<mask id="mask1_607_4883" style="mask-type:alpha" maskUnits="userSpaceOnUse" x="-236" y="0" width="2394" height="1409">
<rect width="2394" height="1409" transform="matrix(1 0 0 -1 -236 1409)" fill="#D9D9D9"/>
</mask>
<g mask="url(#mask1_607_4883)">
<mask id="mask2_607_4883" style="mask-type:alpha" maskUnits="userSpaceOnUse" x="-236" y="0" width="2394" height="1563">
<rect width="2393.86" height="1563" transform="matrix(1 0 0 -1 -235.864 1563)" fill="#D9D9D9"/>
</mask>
<g mask="url(#mask2_607_4883)">
<mask id="mask3_607_4883" style="mask-type:alpha" maskUnits="userSpaceOnUse" x="-236" y="0" width="2394" height="1911">
<rect x="-235.864" width="2393.86" height="1910.21" fill="#D9D9D9"/>
</mask>
<g mask="url(#mask3_607_4883)">
<mask id="mask4_607_4883" style="mask-type:alpha" maskUnits="userSpaceOnUse" x="-236" y="0" width="2890" height="1911">
<rect width="2889.72" height="1910.21" transform="matrix(-1 0 0 1 2653.86 0)" fill="#D9D9D9"/>
</mask>
<g mask="url(#mask4_607_4883)">
<mask id="mask5_607_4883" style="mask-type:alpha" maskUnits="userSpaceOnUse" x="-677" y="0" width="3331" height="1911">
<rect x="-676.037" width="3329.89" height="1910.14" fill="#D9D9D9"/>
</mask>
<g mask="url(#mask5_607_4883)">
<path d="M-676.037 380.918C-267.859 283.249 202.836 155.489 643.717 -5.76883e-05L-676.037 0L-676.037 380.918Z" fill="url(#paint0_radial_607_4883)"/>
<path d="M1408.06 1910.14L3834.29 1910.14L3834.29 129.017C3567.3 175.478 3318.56 237.396 3087.08 311.411C3077.82 314.36 3068.61 317.33 3059.4 320.322C3058.31 323.162 3057.22 326.024 3056.1 328.864C2910.25 704.275 2567.45 1263.86 1764.52 1726.31C1654.57 1789.66 1535.96 1851.17 1408.06 1910.14V1910.14Z" fill="url(#paint1_radial_607_4883)"/>
<path d="M769.508 1910.14L1408.06 1910.14C1535.99 1851.17 1654.57 1789.66 1764.52 1726.31C2177.59 973.476 2655.86 558.043 3056.1 328.864C3057.22 326.002 3058.31 323.141 3059.4 320.322C1912.89 693.782 1192.85 1363.56 769.482 1910.16L769.508 1910.14Z" fill="url(#paint2_radial_607_4883)"/>
<path d="M-676.037 1910.14L769.508 1910.14C1192.88 1363.56 1912.89 693.76 3059.43 320.3C3111.7 184.02 3137.9 72.6714 3150.85 -0.0216517L1713.4 -0.0215888C972.647 557.35 -143.499 854.583 -676.037 971.828L-676.037 1910.14Z" fill="url(#paint3_radial_607_4883)"/>
<path d="M-676.037 380.918C-267.859 283.249 202.836 155.489 643.717 -5.76883e-05L-676.037 0L-676.037 380.918Z" fill="url(#paint4_radial_607_4883)"/>
<path d="M1764.55 1726.31C2567.48 1263.86 2910.27 704.253 3056.12 328.864C2655.88 558.065 2177.62 973.476 1764.55 1726.31V1726.31Z" fill="url(#paint5_radial_607_4883)"/>
<path d="M-676.037 971.828C-143.499 854.582 972.647 557.349 1713.4 -0.000104445L643.717 -5.76883e-05C202.836 155.489 -267.859 283.249 -676.037 380.918L-676.037 971.828Z" fill="url(#paint6_radial_607_4883)"/>
</g>
</g>
</g>
</g>
</g>
</g>
<defs>
<radialGradient id="paint0_radial_607_4883" cx="0" cy="0" r="1" gradientUnits="userSpaceOnUse" gradientTransform="translate(-871.013 -582.774) rotate(90) scale(2224 2643.46)">
<stop stop-color="#3650FF"/>
<stop offset="1" stop-color="#110045"/>
</radialGradient>
<radialGradient id="paint1_radial_607_4883" cx="0" cy="0" r="1" gradientUnits="userSpaceOnUse" gradientTransform="translate(3757.38 2639.13) rotate(90) scale(1922.83 2285.49)">
<stop stop-color="#3650FF"/>
<stop offset="1" stop-color="#110045"/>
</radialGradient>
<radialGradient id="paint2_radial_607_4883" cx="0" cy="0" r="1" gradientUnits="userSpaceOnUse" gradientTransform="translate(1374.81 277.205) rotate(90) scale(2477.04 2944.23)">
<stop stop-color="#3650FF"/>
<stop offset="1" stop-color="#110045"/>
</radialGradient>
<radialGradient id="paint3_radial_607_4883" cx="0" cy="0" r="1" gradientUnits="userSpaceOnUse" gradientTransform="translate(-1122.95 325.67) rotate(90) scale(3913.22 4651.29)">
<stop stop-color="#3650FF"/>
<stop offset="1" stop-color="#110045"/>
</radialGradient>
<radialGradient id="paint4_radial_607_4883" cx="0" cy="0" r="1" gradientUnits="userSpaceOnUse" gradientTransform="translate(-1137.34 -31.657) rotate(90) scale(1876.85 2230.83)">
<stop stop-color="#3650FF"/>
<stop offset="1" stop-color="#110045"/>
</radialGradient>
<radialGradient id="paint5_radial_607_4883" cx="0" cy="0" r="1" gradientUnits="userSpaceOnUse" gradientTransform="translate(2145 1791.26) rotate(90) scale(1257.32 1494.47)">
<stop stop-color="#3650FF"/>
<stop offset="1" stop-color="#110045"/>
</radialGradient>
<radialGradient id="paint6_radial_607_4883" cx="0" cy="0" r="1" gradientUnits="userSpaceOnUse" gradientTransform="translate(-942.986 -104.32) rotate(90) scale(2801.79 3330.23)">
<stop stop-color="#3650FF"/>
<stop offset="1" stop-color="#110045"/>
</radialGradient>
</defs>
</svg>
